<svg aria-hidden="true" style="position: absolute; width: 0; height: 0; overflow: hidden;" version="1.1"
  xmlns="http://www.w3.org/2000/svg"
  xmlns:xlink="http://www.w3.org/1999/xlink">
  <defs>
    <symbol id="icon-menu" viewBox="0 0 32 32">
      <path d="M2 6h28v6h-28zM2 14h28v6h-28zM2 22h28v6h-28z"></path>
    </symbol>
    <symbol id="icon-close" viewBox="0 0 32 32">
      <path d="M16 0c-8.837 0-16 7.163-16 16s7.163 16 16 16 16-7.163 16-16-7.163-16-16-16zM16 29c-7.18 0-13-5.82-13-13s5.82-13 13-13 13 5.82 13 13-5.82 13-13 13z"></path>
      <path d="M21 8l-5 5-5-5-3 3 5 5-5 5 3 3 5-5 5 5 3-3-5-5 5-5z"></path>
    </symbol>
    <symbol id="icon-box" viewBox="0 0 32 32">
      <path fill="#fff" style="fill: var(--color1, #fff)" d="M29.096 9.908c-0.123-0.177-0.286-0.322-0.477-0.422s-0.403-0.152-0.619-0.152h-18.223l-1.539-3.693c-0.202-0.486-0.543-0.902-0.982-1.194s-0.953-0.447-1.48-0.446h-3.111v2.667h3.111l6.325 15.18c0.101 0.243 0.272 0.45 0.491 0.596s0.476 0.224 0.739 0.224h10.667c0.556 0 1.053-0.345 1.249-0.864l4-10.667c0.076-0.202 0.101-0.419 0.074-0.633s-0.105-0.418-0.228-0.595zM23.076 20h-8.853l-3.333-8h15.187l-3 8z"></path>
      <path fill="#fff" style="fill: var(--color1, #fff)" d="M14 28c1.105 0 2-0.895 2-2s-0.895-2-2-2c-1.105 0-2 0.895-2 2s0.895 2 2 2z"></path>
      <path fill="#fff" style="fill: var(--color1, #fff)" d="M23.333 28c1.105 0 2-0.895 2-2s-0.895-2-2-2c-1.105 0-2 0.895-2 2s0.895 2 2 2z"></path>
    </symbol>
    <symbol id="icon-phone" viewBox="0 0 32 32">
      <path fill="#969696" style="fill: var(--color2, #969696)" d="M23.2 29.333c-5.444-0.007-10.662-2.173-14.511-6.022s-6.015-9.068-6.022-14.511c0-1.627 0.646-3.187 1.796-4.337s2.71-1.796 4.337-1.796c0.344-0.003 0.688 0.029 1.027 0.093 0.327 0.048 0.649 0.129 0.96 0.24 0.219 0.077 0.414 0.21 0.566 0.385s0.256 0.387 0.301 0.615l1.827 8c0.049 0.217 0.043 0.443-0.017 0.657s-0.174 0.41-0.329 0.569c-0.173 0.187-0.187 0.2-1.827 1.053 1.313 2.881 3.618 5.195 6.493 6.52 0.867-1.653 0.88-1.667 1.067-1.84 0.159-0.156 0.355-0.269 0.569-0.329s0.44-0.066 0.657-0.017l8 1.827c0.22 0.051 0.424 0.158 0.592 0.309s0.295 0.343 0.368 0.557c0.113 0.317 0.197 0.642 0.253 0.973 0.054 0.335 0.080 0.674 0.080 1.013-0.025 1.62-0.689 3.164-1.848 4.295s-2.719 1.759-4.339 1.745zM8.8 5.333c-0.918 0.004-1.798 0.37-2.447 1.019s-1.016 1.529-1.019 2.447c0.004 4.737 1.887 9.28 5.237 12.63s7.892 5.233 12.63 5.237c0.918-0.003 1.798-0.37 2.447-1.019s1.016-1.529 1.019-2.447v-0.44l-6.187-1.427-0.387 0.733c-0.6 1.16-1.040 2-2.16 1.547-2.21-0.791-4.215-2.064-5.871-3.727s-2.921-3.674-3.702-5.887c-0.48-1.040 0.427-1.52 1.573-2.12l0.733-0.36-1.427-6.187h-0.44z"></path>
    </symbol>
    <symbol id="icon-search" viewBox="0 0 32 32">
      <path fill="#fff" style="fill: var(--color1, #fff)" d="M28 25.333l-6.872-6.872c1.27-1.931 1.779-4.264 1.428-6.549s-1.538-4.357-3.33-5.817c-1.792-1.46-4.062-2.203-6.37-2.086s-4.491 1.087-6.125 2.722c-1.634 1.634-2.604 3.817-2.722 6.125s0.626 4.578 2.086 6.37 3.533 2.978 5.817 3.329c2.284 0.351 4.618-0.158 6.549-1.428l6.872 6.872 2.667-2.667zM6.667 13.333c0-3.676 2.991-6.667 6.667-6.667s6.667 2.991 6.667 6.667-2.991 6.667-6.667 6.667c-3.676 0-6.667-2.991-6.667-6.667z"></path>
    </symbol>
    <symbol id="icon-log-in" viewBox="0 0 32 32">
      <path fill="#969696" style="fill: var(--color2, #969696)" d="M12 2.667h12c1.467 0 2.667 1.2 2.667 2.667v21.333c0 1.467-1.2 2.667-2.667 2.667h-12c-1.467 0-2.667-1.2-2.667-2.667v-2.666h2.667v2.666h12v-21.333h-12v2.667h-2.667v-2.667c0-1.467 1.2-2.667 2.667-2.667z"></path>
      <path fill="#969696" style="fill: var(--color2, #969696)" d="M13.453 20.787l1.88 1.88 6.667-6.667-6.667-6.667-1.88 1.88 3.44 3.453h-12.893v2.667h12.893l-3.44 3.453z"></path>
    </symbol>
  </defs>
</svg>
